<?xml version="1.0" encoding="UTF-8"?>
<svg width="20px" height="29px" viewBox="0 0 20 29" version="1.1" xmlns="http://www.w3.org/2000/svg" xmlns:xlink="http://www.w3.org/1999/xlink">
    <!-- Generator: Sketch 49.3 (51167) - http://www.bohemiancoding.com/sketch -->
    <title>Group</title>
    <desc>Created with Sketch.</desc>
    <defs></defs>
    <g id="Page-1" stroke="none" stroke-width="1" fill="none" fill-rule="evenodd">
        <g id="Group" fill="#A88181" fill-rule="nonzero">
            <path d="M10,8 C7.790861,8 6,6.209139 6,4 C6,1.790861 7.790861,0 10,0 C12.209139,0 14,1.790861 14,4 C14,6.209139 12.209139,8 10,8 Z M10,6 C11.1045695,6 12,5.1045695 12,4 C12,2.8954305 11.1045695,2 10,2 C8.8954305,2 8,2.8954305 8,4 C8,5.1045695 8.8954305,6 10,6 Z" id="Oval"></path>
            <path d="M2.38912129,25.1910915 C2.83462375,25.4788369 3.50602543,25.7799416 4.31747235,26.0516075 C6.05081017,26.631915 8.16482256,27 9.91,27 C11.7668991,27 13.9294799,26.6337513 15.6850281,26.051149 C16.4996322,25.7808117 17.1709613,25.4803398 17.6151,25.1924217 C17.7968242,25.0746169 17.926741,24.9674912 17.999183,24.8846411 C17.9897816,24.2483917 17.8978441,23.9738302 17.6510288,23.6367564 C17.5661488,23.5208364 17.1345028,22.9939144 17.0311741,22.8608791 C16.7031081,22.4384955 16.4162866,22.0101669 16.1252911,21.4846487 C15.5562089,20.4575515 15.2619619,19.4421409 14.8784152,17.5588718 C14.8456367,17.3975165 14.8456367,17.3975165 14.8132492,17.2373938 C13.9790556,13.1147368 13.1853334,12 10,12 C6.82079032,12 6.02554526,13.1244932 5.1867246,17.2672027 C5.16581022,17.3705099 5.16581022,17.3705099 5.14475686,17.4743164 C4.74201323,19.4579943 4.45557474,20.4551455 3.87038848,21.4923656 C3.57376117,22.016734 3.2846739,22.4427806 2.95432581,22.8654073 C2.86833516,22.9754184 2.42726811,23.5137796 2.3399514,23.6338403 C2.09990269,23.963908 2.01010726,24.2380917 2.00081784,24.8816971 C2.07444959,24.965074 2.20587447,25.0727343 2.38912129,25.1910915 Z M9.91,29 C5.45618268,29 0,27.1733139 0,25 C0,23.863248 0.208957069,23.1635914 0.722478042,22.4574986 C0.850219434,22.2818538 1.32391445,21.7036673 1.37858634,21.6337235 C1.650474,21.2858873 1.88431863,20.9412555 2.12905279,20.5086234 C2.57672423,19.715142 2.82321959,18.8570411 3.18474542,17.0763777 C3.20559973,16.9735528 3.20559973,16.9735528 3.22650414,16.870295 C4.2322129,11.90337 5.57828209,10 10,10 C14.4237336,10 15.7726858,11.8945251 16.7735221,16.840745 C16.8058841,17.0007408 16.8058841,17.0007408 16.8381851,17.159745 C17.1823427,18.8496082 17.4351538,19.7220287 17.8748342,20.5155775 C18.1135195,20.946627 18.3433276,21.289814 18.6107019,21.6340573 C18.6838425,21.7282254 19.141151,22.2864744 19.264688,22.4551879 C19.7852975,23.1661803 20,23.8679324 20,25 C20,27.1933169 14.5559441,29 9.91,29 Z" id="Shape"></path>
        </g>
    </g>
</svg>