<?xml version="1.0" encoding="UTF-8"?>
<svg width="64px" height="62px" viewBox="0 0 64 62" version="1.1" xmlns="http://www.w3.org/2000/svg" xmlns:xlink="http://www.w3.org/1999/xlink">
    <!-- Generator: Sketch 49.3 (51167) - http://www.bohemiancoding.com/sketch -->
    <title>LinkedIn</title>
    <desc>Created with Sketch.</desc>
    <defs></defs>
    <g id="Page-1" stroke="none" stroke-width="1" fill="none" fill-rule="evenodd">
        <path d="M64,37.9570516 L64,61.558 L50.2827277,61.558 L50.2827277,39.5377008 C50.2827277,34.0060222 48.2986722,30.2308678 43.3334744,30.2308678 C39.5431755,30.2308678 37.2875659,32.7750452 36.2952406,35.2361086 C35.933367,36.1159292 35.8402202,37.3405242 35.8402202,38.5720948 L35.8402202,61.558 L22.1183352,61.558 C22.1183352,61.558 22.3031408,24.2628409 22.1183352,20.3987842 L35.838881,20.3987842 L35.838881,26.2329383 C35.8110561,26.2765731 35.7748985,26.3236216 35.7487102,26.3659206 L35.838881,26.3659206 L35.838881,26.2329383 C37.6617897,23.4324434 40.9173132,19.4318425 48.2041863,19.4318425 C57.2321299,19.431694 64,25.3145292 64,37.9570516 Z M7.76465938,0.558 C3.07042037,0.558 0,3.6292089 0,7.66795324 C0,11.6186858 2.98158873,14.7831011 7.58253219,14.7831011 L7.67419098,14.7831011 C12.4593448,14.7831011 15.4352792,11.6192795 15.4352792,7.66795324 C15.3451084,3.6292089 12.4593448,0.558 7.76465938,0.558 Z M0.814959651,61.558 L14.5316367,61.558 L14.5316367,20.3987842 L0.814959651,20.3987842 L0.814959651,61.558 Z" id="LinkedIn" fill="#000000" fill-rule="nonzero"></path>
    </g>
</svg>