<?xml version="1.0" encoding="UTF-8"?>
<svg width="26px" height="26px" viewBox="0 0 26 26" version="1.1" xmlns="http://www.w3.org/2000/svg" xmlns:xlink="http://www.w3.org/1999/xlink">
    <!-- Generator: Sketch 49.3 (51167) - http://www.bohemiancoding.com/sketch -->
    <title>Group</title>
    <desc>Created with Sketch.</desc>
    <defs></defs>
    <g id="Page-1" stroke="none" stroke-width="1" fill="none" fill-rule="evenodd">
        <g id="Group" fill="#855151" fill-rule="nonzero">
            <path d="M11.1281087,22.2562173 C4.98222396,22.2562173 0,17.2739934 0,11.1281087 C0,4.98222396 4.98222396,0 11.1281087,0 C17.2739934,0 22.2562173,4.98222396 22.2562173,11.1281087 C22.2562173,17.2739934 17.2739934,22.2562173 11.1281087,22.2562173 Z M11.1281087,20.4015326 C16.2496793,20.4015326 20.4015326,16.2496793 20.4015326,11.1281087 C20.4015326,6.00653808 16.2496793,1.85468478 11.1281087,1.85468478 C6.00653808,1.85468478 1.85468478,6.00653808 1.85468478,11.1281087 C1.85468478,16.2496793 6.00653808,20.4015326 11.1281087,20.4015326 Z" id="Oval"></path>
            <polygon id="Shape" points="17.5915861 18.9021189 18.9030463 17.5906588 25.9944335 24.682046 24.6829734 25.9935062"></polygon>
        </g>
    </g>
</svg>