<?xml version="1.0" encoding="UTF-8"?>
<svg width="64px" height="53px" viewBox="0 0 64 53" version="1.1" xmlns="http://www.w3.org/2000/svg" xmlns:xlink="http://www.w3.org/1999/xlink">
    <!-- Generator: Sketch 49.3 (51167) - http://www.bohemiancoding.com/sketch -->
    <title>Shape</title>
    <desc>Created with Sketch.</desc>
    <defs></defs>
    <g id="Page-1" stroke="none" stroke-width="1" fill="none" fill-rule="evenodd">
        <path d="M64.001,6.59341823 C61.6454406,7.63745799 59.1179593,8.34551381 56.4623733,8.66162323 C59.1739071,7.03745678 61.2495184,4.46130097 62.2332585,1.40104377 C59.6897773,2.9051263 56.8822433,3.9972833 53.8907613,4.5893347 C51.4952541,2.03315801 48.087876,0.441 44.3085234,0.441 C37.0578972,0.441 31.1789856,6.32145116 31.1789856,13.5700013 C31.1789856,14.5980368 31.2949596,15.6021184 31.51896,16.5622667 C20.6090337,16.0141485 10.9348741,10.7857907 4.46009225,2.84110943 C3.32827341,4.77730579 2.68440308,7.03337728 2.68440308,9.44164572 C2.68440308,13.9980356 5.00398857,18.0183366 8.52336687,20.3704334 C6.37172936,20.2984667 4.34809207,19.7064153 2.57648133,18.7223129 L2.57648133,18.88633 C2.57648133,25.246803 7.10365213,30.5551819 13.1064855,31.7633433 C12.0066667,32.059369 10.8469262,32.2233861 9.64713341,32.2233861 C8.79934117,32.2233861 7.97947055,32.1393901 7.17559996,31.979348 C8.84723668,37.199756 13.694408,40.9959979 19.4373716,41.1000776 C14.9461747,44.6203776 9.28321125,46.7125366 3.13240381,46.7125366 C2.07263737,46.7125366 1.02876639,46.6485197 0.001,46.5325153 C5.8119376,50.264845 12.7106678,52.441 20.1252682,52.441 C44.2767325,52.441 57.4783227,32.4314409 57.4783227,15.0781633 L57.4342965,13.3780553 C60.0137517,11.5377796 62.2452847,9.2256411 64.001,6.59341823 Z" id="Shape" fill="#010002" fill-rule="nonzero"></path>
    </g>
</svg>