<?xml version="1.0" encoding="UTF-8"?>
<svg width="30px" height="17px" viewBox="0 0 30 17" version="1.1" xmlns="http://www.w3.org/2000/svg" xmlns:xlink="http://www.w3.org/1999/xlink">
    <!-- Generator: Sketch 49.3 (51167) - http://www.bohemiancoding.com/sketch -->
    <title>Shape</title>
    <desc>Created with Sketch.</desc>
    <defs></defs>
    <g id="Page-1" stroke="none" stroke-width="1" fill="none" fill-rule="evenodd">
        <path d="M25.8193861,10.8094393 C26.8145398,11.782344 27.86483,12.6976324 28.7573862,13.7686372 C29.1516625,14.2445872 29.5249037,14.7356747 29.8104889,15.2880161 C30.2151363,16.0731693 29.8486333,16.9371781 29.1455688,16.9840573 L24.7750725,16.9820624 C23.6478489,17.0757035 22.7486129,16.6213449 21.9925212,15.849569 C21.3874251,15.2323947 20.827036,14.5755579 20.2452016,13.9375549 C20.006667,13.676815 19.7569997,13.4314473 19.4587583,13.2374766 C18.8621583,12.8497111 18.3442495,12.9684052 18.0032934,13.5915055 C17.6560677,14.225284 17.5772594,14.9270052 17.5431579,15.6333028 C17.4963416,16.6638237 17.1852682,16.9347725 16.1515014,16.9819451 C13.9422299,17.0862645 11.8455166,16.7515975 9.8976897,15.635591 C8.18042859,14.6517732 6.84883053,13.262823 5.68973201,11.6904631 C3.43311685,8.62876453 1.70489874,5.2643754 0.151699698,1.8057585 C-0.197928289,1.0265312 0.0577741641,0.608256114 0.916404719,0.593412013 C2.34216269,0.565659998 3.76774488,0.567654857 5.19520206,0.591417153 C5.77469273,0.599924642 6.158305,0.932714136 6.38207394,1.48088978 C7.15345863,3.38017199 8.09734287,5.18716261 9.28210538,6.8620818 C9.5976319,7.30799156 9.91936933,7.75395999 10.3774541,8.06779832 C10.8842887,8.41531457 11.2701861,8.30014077 11.5086034,7.73477414 C11.6598921,7.37628616 11.7261615,6.99016351 11.7602629,6.60627042 C11.8732314,5.2853801 11.8881142,3.96671934 11.6900092,2.65046414 C11.5683689,1.82899275 11.1062998,1.29718669 10.2876887,1.14176367 C9.86997493,1.06249734 9.93214274,0.906839635 10.1344078,0.668101897 C10.4856764,0.256339439 10.8160857,0 11.4747363,0 L16.4140593,0 C17.1916549,0.15366285 17.3643302,0.503467321 17.4707948,1.28691903 L17.4750135,6.78082062 C17.4665175,7.08409793 17.6263022,7.98419024 18.1718672,8.18490831 C18.6085066,8.32783412 18.8963184,7.97802965 19.1583489,7.70080286 C20.3409435,6.44398273 21.1849842,4.95863386 21.9390252,3.42059723 C22.2736533,2.7442812 22.5614064,2.04197333 22.8402533,1.34019351 C23.0468544,0.819476526 23.3710527,0.563254432 23.9568129,0.574578193 L28.7106285,0.578802601 C28.8516047,0.578802601 28.9942215,0.580856133 29.1307446,0.604266395 C29.9317777,0.740972939 30.1513279,1.08602495 29.9038871,1.86930065 C29.5140639,3.09819274 28.7555698,4.12231837 28.0139507,5.15113779 C27.2211793,6.24954261 26.3732714,7.31039713 25.5871211,8.41531457 C24.8647793,9.42447876 24.9221424,9.93305058 25.8193861,10.8094393 Z" id="Shape" fill="#000000" fill-rule="nonzero"></path>
    </g>
</svg>